<mxfile host="Electron" modified="2023-07-28T19:05:49.137Z" agent="Mozilla/5.0 (Windows NT 10.0; Win64; x64) AppleWebKit/537.36 (KHTML, like Gecko) draw.io/21.6.5 Chrome/114.0.5735.243 Electron/25.3.1 Safari/537.36" etag="bLj1EYxouiaJMFRPPMZT" version="21.6.5" type="device">
  <diagram id="R2lEEEUBdFMjLlhIrx00" name="Page-1">
    <mxGraphModel dx="1332" dy="1706" grid="1" gridSize="10" guides="1" tooltips="1" connect="1" arrows="1" fold="1" page="1" pageScale="1" pageWidth="850" pageHeight="1100" background="none" math="0" shadow="0" extFonts="Permanent Marker^https://fonts.googleapis.com/css?family=Permanent+Marker">
      <root>
        <mxCell id="0" />
        <mxCell id="1" parent="0" />
        <mxCell id="Se24iivOVjBYKIn2nHTa-18" value="" style="shape=partialRectangle;collapsible=0;dropTarget=0;pointerEvents=0;fillColor=none;points=[[0,0.5],[1,0.5]];portConstraint=eastwest;top=0;left=0;right=0;bottom=0;direction=south;" parent="1" vertex="1">
          <mxGeometry x="240" y="-10" width="30" height="250" as="geometry" />
        </mxCell>
        <mxCell id="Se24iivOVjBYKIn2nHTa-19" value="" style="shape=partialRectangle;overflow=hidden;connectable=0;fillColor=none;top=0;left=0;bottom=0;right=0;" parent="Se24iivOVjBYKIn2nHTa-18" vertex="1">
          <mxGeometry width="30" height="30" as="geometry">
            <mxRectangle width="30" height="30" as="alternateBounds" />
          </mxGeometry>
        </mxCell>
        <mxCell id="Se24iivOVjBYKIn2nHTa-20" value="&#xa;&#xa;" style="shape=partialRectangle;overflow=hidden;connectable=0;fillColor=none;top=0;left=0;bottom=0;right=0;align=left;spacingLeft=6;" parent="Se24iivOVjBYKIn2nHTa-18" vertex="1">
          <mxGeometry x="30" width="220" height="30" as="geometry">
            <mxRectangle width="220" height="30" as="alternateBounds" />
          </mxGeometry>
        </mxCell>
        <mxCell id="Se24iivOVjBYKIn2nHTa-33" style="edgeStyle=orthogonalEdgeStyle;rounded=0;orthogonalLoop=1;jettySize=auto;html=1;strokeColor=#006658;fontColor=#5C5C5C;fillColor=#21C0A5;" parent="1" source="Se24iivOVjBYKIn2nHTa-25" edge="1">
          <mxGeometry relative="1" as="geometry">
            <mxPoint x="460" y="80" as="targetPoint" />
            <Array as="points">
              <mxPoint x="461" y="120" />
            </Array>
          </mxGeometry>
        </mxCell>
        <mxCell id="Se24iivOVjBYKIn2nHTa-40" style="edgeStyle=orthogonalEdgeStyle;rounded=0;orthogonalLoop=1;jettySize=auto;html=1;exitX=1;exitY=0.5;exitDx=0;exitDy=0;strokeColor=#006658;fontColor=#5C5C5C;fillColor=#21C0A5;" parent="1" source="Se24iivOVjBYKIn2nHTa-25" target="Se24iivOVjBYKIn2nHTa-39" edge="1">
          <mxGeometry relative="1" as="geometry" />
        </mxCell>
        <mxCell id="Se24iivOVjBYKIn2nHTa-41" style="edgeStyle=orthogonalEdgeStyle;rounded=0;orthogonalLoop=1;jettySize=auto;html=1;exitX=0;exitY=0.25;exitDx=0;exitDy=0;entryX=0.5;entryY=1;entryDx=0;entryDy=0;strokeColor=#006658;fontColor=#5C5C5C;fillColor=#21C0A5;" parent="1" source="Se24iivOVjBYKIn2nHTa-25" target="Se24iivOVjBYKIn2nHTa-26" edge="1">
          <mxGeometry relative="1" as="geometry" />
        </mxCell>
        <mxCell id="Se24iivOVjBYKIn2nHTa-44" style="edgeStyle=orthogonalEdgeStyle;rounded=0;orthogonalLoop=1;jettySize=auto;html=1;exitX=0;exitY=0.75;exitDx=0;exitDy=0;strokeColor=#006658;fontColor=#5C5C5C;fillColor=#21C0A5;" parent="1" source="Se24iivOVjBYKIn2nHTa-25" edge="1">
          <mxGeometry relative="1" as="geometry">
            <mxPoint x="210" y="210" as="targetPoint" />
          </mxGeometry>
        </mxCell>
        <mxCell id="3dnz9HyW__RMo2jooEWQ-19" style="edgeStyle=orthogonalEdgeStyle;rounded=0;orthogonalLoop=1;jettySize=auto;html=1;exitX=1;exitY=0.75;exitDx=0;exitDy=0;entryX=0.4;entryY=0;entryDx=0;entryDy=0;entryPerimeter=0;" parent="1" source="Se24iivOVjBYKIn2nHTa-25" target="Se24iivOVjBYKIn2nHTa-29" edge="1">
          <mxGeometry relative="1" as="geometry" />
        </mxCell>
        <mxCell id="Se24iivOVjBYKIn2nHTa-25" value="Id_Clientes" style="whiteSpace=wrap;html=1;align=center;strokeColor=#d79b00;fillColor=#ffe6cc;" parent="1" vertex="1">
          <mxGeometry x="290" y="120" width="100" height="40" as="geometry" />
        </mxCell>
        <mxCell id="Se24iivOVjBYKIn2nHTa-26" value="nombre&lt;span style=&quot;white-space: pre;&quot;&gt;&#x9;&lt;/span&gt;" style="ellipse;whiteSpace=wrap;html=1;align=center;strokeColor=#6c8ebf;fillColor=#dae8fc;" parent="1" vertex="1">
          <mxGeometry x="160" y="40" width="100" height="40" as="geometry" />
        </mxCell>
        <mxCell id="Se24iivOVjBYKIn2nHTa-27" value="apellido" style="ellipse;whiteSpace=wrap;html=1;align=center;strokeColor=#6c8ebf;fillColor=#dae8fc;" parent="1" vertex="1">
          <mxGeometry x="410" y="40" width="100" height="40" as="geometry" />
        </mxCell>
        <mxCell id="Se24iivOVjBYKIn2nHTa-28" value="telefono" style="ellipse;whiteSpace=wrap;html=1;align=center;strokeColor=#6c8ebf;fillColor=#dae8fc;" parent="1" vertex="1">
          <mxGeometry x="160" y="210" width="100" height="40" as="geometry" />
        </mxCell>
        <mxCell id="Se24iivOVjBYKIn2nHTa-30" style="edgeStyle=orthogonalEdgeStyle;shape=flexArrow;rounded=0;orthogonalLoop=1;jettySize=auto;html=1;exitX=0.5;exitY=1;exitDx=0;exitDy=0;strokeColor=#006658;fontColor=#5C5C5C;fillColor=#21C0A5;" parent="1" source="Se24iivOVjBYKIn2nHTa-27" target="Se24iivOVjBYKIn2nHTa-27" edge="1">
          <mxGeometry relative="1" as="geometry" />
        </mxCell>
        <mxCell id="Se24iivOVjBYKIn2nHTa-48" style="edgeStyle=orthogonalEdgeStyle;rounded=0;orthogonalLoop=1;jettySize=auto;html=1;exitX=1;exitY=0.5;exitDx=0;exitDy=0;strokeColor=#006658;fontColor=#5C5C5C;fillColor=#21C0A5;" parent="1" source="Se24iivOVjBYKIn2nHTa-39" edge="1">
          <mxGeometry relative="1" as="geometry">
            <mxPoint x="750" y="140" as="targetPoint" />
          </mxGeometry>
        </mxCell>
        <mxCell id="Se24iivOVjBYKIn2nHTa-39" value="Id_Reservas" style="shape=rhombus;perimeter=rhombusPerimeter;whiteSpace=wrap;html=1;align=center;strokeColor=#006658;fontColor=#5C5C5C;fillColor=#21C0A5;" parent="1" vertex="1">
          <mxGeometry x="555" y="110" width="120" height="60" as="geometry" />
        </mxCell>
        <mxCell id="Se24iivOVjBYKIn2nHTa-29" value="e-mail" style="ellipse;whiteSpace=wrap;html=1;align=center;strokeColor=#6c8ebf;fillColor=#dae8fc;" parent="1" vertex="1">
          <mxGeometry x="419" y="210" width="100" height="40" as="geometry" />
        </mxCell>
        <mxCell id="Se24iivOVjBYKIn2nHTa-46" value="&lt;b&gt;N:M&lt;/b&gt;" style="text;html=1;align=center;verticalAlign=middle;resizable=0;points=[];autosize=1;strokeColor=none;fillColor=none;fontColor=#5C5C5C;" parent="1" vertex="1">
          <mxGeometry x="590" y="80" width="40" height="30" as="geometry" />
        </mxCell>
        <mxCell id="Se24iivOVjBYKIn2nHTa-47" value="(1:n)" style="text;html=1;align=center;verticalAlign=middle;resizable=0;points=[];autosize=1;strokeColor=none;fillColor=none;fontColor=#5C5C5C;" parent="1" vertex="1">
          <mxGeometry x="485" y="120" width="50" height="30" as="geometry" />
        </mxCell>
        <mxCell id="3dnz9HyW__RMo2jooEWQ-73" style="edgeStyle=orthogonalEdgeStyle;rounded=0;orthogonalLoop=1;jettySize=auto;html=1;exitX=0;exitY=0.25;exitDx=0;exitDy=0;entryX=0.5;entryY=1;entryDx=0;entryDy=0;" parent="1" source="Se24iivOVjBYKIn2nHTa-49" target="Se24iivOVjBYKIn2nHTa-53" edge="1">
          <mxGeometry relative="1" as="geometry" />
        </mxCell>
        <mxCell id="3dnz9HyW__RMo2jooEWQ-74" style="edgeStyle=orthogonalEdgeStyle;rounded=0;orthogonalLoop=1;jettySize=auto;html=1;exitX=1;exitY=0.25;exitDx=0;exitDy=0;entryX=0.61;entryY=0.975;entryDx=0;entryDy=0;entryPerimeter=0;" parent="1" source="Se24iivOVjBYKIn2nHTa-49" target="Se24iivOVjBYKIn2nHTa-56" edge="1">
          <mxGeometry relative="1" as="geometry" />
        </mxCell>
        <mxCell id="3dnz9HyW__RMo2jooEWQ-76" style="edgeStyle=orthogonalEdgeStyle;rounded=0;orthogonalLoop=1;jettySize=auto;html=1;exitX=1;exitY=0.75;exitDx=0;exitDy=0;entryX=0.5;entryY=0;entryDx=0;entryDy=0;" parent="1" source="Se24iivOVjBYKIn2nHTa-49" target="Se24iivOVjBYKIn2nHTa-63" edge="1">
          <mxGeometry relative="1" as="geometry" />
        </mxCell>
        <mxCell id="3dnz9HyW__RMo2jooEWQ-77" style="edgeStyle=orthogonalEdgeStyle;rounded=0;orthogonalLoop=1;jettySize=auto;html=1;exitX=0;exitY=0.75;exitDx=0;exitDy=0;entryX=0.31;entryY=-0.075;entryDx=0;entryDy=0;entryPerimeter=0;" parent="1" source="Se24iivOVjBYKIn2nHTa-49" target="Se24iivOVjBYKIn2nHTa-60" edge="1">
          <mxGeometry relative="1" as="geometry" />
        </mxCell>
        <mxCell id="3dnz9HyW__RMo2jooEWQ-78" style="edgeStyle=orthogonalEdgeStyle;rounded=0;orthogonalLoop=1;jettySize=auto;html=1;exitX=0.5;exitY=1;exitDx=0;exitDy=0;" parent="1" source="Se24iivOVjBYKIn2nHTa-49" target="Se24iivOVjBYKIn2nHTa-68" edge="1">
          <mxGeometry relative="1" as="geometry" />
        </mxCell>
        <mxCell id="Se24iivOVjBYKIn2nHTa-49" value="Id_CabaÃ±as" style="whiteSpace=wrap;html=1;align=center;strokeColor=#d79b00;fillColor=#ffe6cc;" parent="1" vertex="1">
          <mxGeometry x="750" y="115" width="100" height="40" as="geometry" />
        </mxCell>
        <mxCell id="Se24iivOVjBYKIn2nHTa-50" value="(1:n)" style="text;html=1;align=center;verticalAlign=middle;resizable=0;points=[];autosize=1;strokeColor=none;fillColor=none;fontColor=#5C5C5C;" parent="1" vertex="1">
          <mxGeometry x="675" y="120" width="50" height="30" as="geometry" />
        </mxCell>
        <mxCell id="Se24iivOVjBYKIn2nHTa-53" value="para 1 persona" style="ellipse;whiteSpace=wrap;html=1;align=center;strokeColor=#6c8ebf;fillColor=#dae8fc;" parent="1" vertex="1">
          <mxGeometry x="680" y="60" width="100" height="40" as="geometry" />
        </mxCell>
        <mxCell id="Se24iivOVjBYKIn2nHTa-56" value="para 2 personas" style="ellipse;whiteSpace=wrap;html=1;align=center;strokeColor=#6c8ebf;fillColor=#dae8fc;" parent="1" vertex="1">
          <mxGeometry x="810" y="60" width="100" height="40" as="geometry" />
        </mxCell>
        <mxCell id="Se24iivOVjBYKIn2nHTa-60" value="mas de 3 personas" style="ellipse;whiteSpace=wrap;html=1;align=center;strokeColor=#6c8ebf;fillColor=#dae8fc;" parent="1" vertex="1">
          <mxGeometry x="685" y="190" width="100" height="40" as="geometry" />
        </mxCell>
        <mxCell id="Se24iivOVjBYKIn2nHTa-63" value="familiar" style="ellipse;whiteSpace=wrap;html=1;align=center;strokeColor=#6c8ebf;fillColor=#dae8fc;" parent="1" vertex="1">
          <mxGeometry x="830" y="190" width="100" height="40" as="geometry" />
        </mxCell>
        <mxCell id="3dnz9HyW__RMo2jooEWQ-36" style="edgeStyle=orthogonalEdgeStyle;rounded=0;orthogonalLoop=1;jettySize=auto;html=1;exitX=0;exitY=0.5;exitDx=0;exitDy=0;" parent="1" edge="1">
          <mxGeometry relative="1" as="geometry">
            <mxPoint x="587" y="466" as="targetPoint" />
            <mxPoint x="737" y="466" as="sourcePoint" />
          </mxGeometry>
        </mxCell>
        <mxCell id="3dnz9HyW__RMo2jooEWQ-37" style="edgeStyle=orthogonalEdgeStyle;rounded=0;orthogonalLoop=1;jettySize=auto;html=1;exitX=1;exitY=1;exitDx=0;exitDy=0;entryX=0;entryY=0.75;entryDx=0;entryDy=0;entryPerimeter=0;" parent="1" source="Se24iivOVjBYKIn2nHTa-68" target="Se24iivOVjBYKIn2nHTa-90" edge="1">
          <mxGeometry relative="1" as="geometry" />
        </mxCell>
        <mxCell id="3dnz9HyW__RMo2jooEWQ-43" style="edgeStyle=orthogonalEdgeStyle;rounded=0;orthogonalLoop=1;jettySize=auto;html=1;exitX=0.5;exitY=1;exitDx=0;exitDy=0;entryX=0;entryY=0.5;entryDx=0;entryDy=0;" parent="1" source="Se24iivOVjBYKIn2nHTa-68" target="Se24iivOVjBYKIn2nHTa-92" edge="1">
          <mxGeometry relative="1" as="geometry" />
        </mxCell>
        <mxCell id="Se24iivOVjBYKIn2nHTa-68" value="Abonos" style="shape=rhombus;perimeter=rhombusPerimeter;whiteSpace=wrap;html=1;align=center;strokeColor=#006658;fontColor=#5C5C5C;fillColor=#21C0A5;" parent="1" vertex="1">
          <mxGeometry x="740" y="438" width="120" height="60" as="geometry" />
        </mxCell>
        <mxCell id="Se24iivOVjBYKIn2nHTa-69" value="&lt;b&gt;N:M&lt;/b&gt;" style="text;html=1;align=center;verticalAlign=middle;resizable=0;points=[];autosize=1;strokeColor=none;fillColor=none;fontColor=#5C5C5C;" parent="1" vertex="1">
          <mxGeometry x="816" y="417" width="40" height="30" as="geometry" />
        </mxCell>
        <mxCell id="Se24iivOVjBYKIn2nHTa-70" value="(n:1)" style="text;html=1;align=center;verticalAlign=middle;resizable=0;points=[];autosize=1;strokeColor=none;fillColor=none;fontColor=#5C5C5C;" parent="1" vertex="1">
          <mxGeometry x="790" y="300" width="50" height="30" as="geometry" />
        </mxCell>
        <mxCell id="Se24iivOVjBYKIn2nHTa-95" style="edgeStyle=orthogonalEdgeStyle;rounded=0;orthogonalLoop=1;jettySize=auto;html=1;exitX=0;exitY=0;exitDx=0;exitDy=0;strokeColor=#006658;fontColor=#5C5C5C;fillColor=#21C0A5;" parent="1" source="Se24iivOVjBYKIn2nHTa-75" target="Se24iivOVjBYKIn2nHTa-79" edge="1">
          <mxGeometry relative="1" as="geometry" />
        </mxCell>
        <mxCell id="Se24iivOVjBYKIn2nHTa-96" style="edgeStyle=orthogonalEdgeStyle;rounded=0;orthogonalLoop=1;jettySize=auto;html=1;exitX=1;exitY=0;exitDx=0;exitDy=0;entryX=0.5;entryY=1;entryDx=0;entryDy=0;strokeColor=#006658;fontColor=#5C5C5C;fillColor=#21C0A5;" parent="1" source="Se24iivOVjBYKIn2nHTa-75" target="Se24iivOVjBYKIn2nHTa-81" edge="1">
          <mxGeometry relative="1" as="geometry" />
        </mxCell>
        <mxCell id="Se24iivOVjBYKIn2nHTa-98" style="edgeStyle=orthogonalEdgeStyle;rounded=0;orthogonalLoop=1;jettySize=auto;html=1;exitX=1;exitY=1;exitDx=0;exitDy=0;entryX=0.5;entryY=0;entryDx=0;entryDy=0;strokeColor=#006658;fontColor=#5C5C5C;fillColor=#21C0A5;" parent="1" source="Se24iivOVjBYKIn2nHTa-75" target="Se24iivOVjBYKIn2nHTa-88" edge="1">
          <mxGeometry relative="1" as="geometry" />
        </mxCell>
        <mxCell id="3dnz9HyW__RMo2jooEWQ-21" style="edgeStyle=orthogonalEdgeStyle;rounded=0;orthogonalLoop=1;jettySize=auto;html=1;exitX=0;exitY=1;exitDx=0;exitDy=0;entryX=0.5;entryY=0;entryDx=0;entryDy=0;" parent="1" source="Se24iivOVjBYKIn2nHTa-75" target="Se24iivOVjBYKIn2nHTa-87" edge="1">
          <mxGeometry relative="1" as="geometry" />
        </mxCell>
        <mxCell id="D-WzxYNva0-hMUp8_YQQ-2" style="edgeStyle=orthogonalEdgeStyle;rounded=0;orthogonalLoop=1;jettySize=auto;html=1;exitX=0;exitY=0.5;exitDx=0;exitDy=0;" edge="1" parent="1">
          <mxGeometry relative="1" as="geometry">
            <mxPoint x="330" y="466" as="targetPoint" />
            <mxPoint x="485" y="466" as="sourcePoint" />
          </mxGeometry>
        </mxCell>
        <mxCell id="Se24iivOVjBYKIn2nHTa-75" value="PAGOS" style="whiteSpace=wrap;html=1;align=center;strokeColor=#d79b00;fillColor=#ffe6cc;" parent="1" vertex="1">
          <mxGeometry x="485" y="440" width="100" height="40" as="geometry" />
        </mxCell>
        <mxCell id="Se24iivOVjBYKIn2nHTa-79" value="debito" style="ellipse;whiteSpace=wrap;html=1;align=center;strokeColor=#6c8ebf;fillColor=#dae8fc;" parent="1" vertex="1">
          <mxGeometry x="435" y="365" width="100" height="40" as="geometry" />
        </mxCell>
        <mxCell id="Se24iivOVjBYKIn2nHTa-81" value="credito" style="ellipse;whiteSpace=wrap;html=1;align=center;strokeColor=#6c8ebf;fillColor=#dae8fc;" parent="1" vertex="1">
          <mxGeometry x="535" y="365" width="100" height="40" as="geometry" />
        </mxCell>
        <mxCell id="Se24iivOVjBYKIn2nHTa-87" value="pesos" style="ellipse;whiteSpace=wrap;html=1;align=center;strokeColor=#6c8ebf;fillColor=#dae8fc;" parent="1" vertex="1">
          <mxGeometry x="435" y="530" width="100" height="40" as="geometry" />
        </mxCell>
        <mxCell id="Se24iivOVjBYKIn2nHTa-88" value="dolar" style="ellipse;whiteSpace=wrap;html=1;align=center;strokeColor=#6c8ebf;fillColor=#dae8fc;" parent="1" vertex="1">
          <mxGeometry x="535" y="530" width="100" height="40" as="geometry" />
        </mxCell>
        <mxCell id="Se24iivOVjBYKIn2nHTa-90" value="presencial" style="ellipse;whiteSpace=wrap;html=1;align=center;strokeColor=#6c8ebf;fillColor=#dae8fc;" parent="1" vertex="1">
          <mxGeometry x="850" y="520" width="100" height="40" as="geometry" />
        </mxCell>
        <mxCell id="Se24iivOVjBYKIn2nHTa-92" value="online" style="ellipse;whiteSpace=wrap;html=1;align=center;strokeColor=#6c8ebf;fillColor=#dae8fc;" parent="1" vertex="1">
          <mxGeometry x="860" y="580" width="100" height="40" as="geometry" />
        </mxCell>
        <mxCell id="Se24iivOVjBYKIn2nHTa-94" style="edgeStyle=orthogonalEdgeStyle;rounded=0;orthogonalLoop=1;jettySize=auto;html=1;exitX=0.5;exitY=1;exitDx=0;exitDy=0;strokeColor=#006658;fontColor=#5C5C5C;fillColor=#21C0A5;" parent="1" source="Se24iivOVjBYKIn2nHTa-87" target="Se24iivOVjBYKIn2nHTa-87" edge="1">
          <mxGeometry relative="1" as="geometry" />
        </mxCell>
        <mxCell id="Se24iivOVjBYKIn2nHTa-103" value="(1:1)" style="text;html=1;align=center;verticalAlign=middle;resizable=0;points=[];autosize=1;strokeColor=none;fillColor=none;fontColor=#5C5C5C;" parent="1" vertex="1">
          <mxGeometry x="660" y="446" width="50" height="30" as="geometry" />
        </mxCell>
        <mxCell id="Se24iivOVjBYKIn2nHTa-106" value="(1:1)" style="text;html=1;align=center;verticalAlign=middle;resizable=0;points=[];autosize=1;strokeColor=none;fillColor=none;fontColor=#5C5C5C;" parent="1" vertex="1">
          <mxGeometry x="822" y="498" width="50" height="30" as="geometry" />
        </mxCell>
        <mxCell id="D-WzxYNva0-hMUp8_YQQ-3" style="edgeStyle=orthogonalEdgeStyle;rounded=0;orthogonalLoop=1;jettySize=auto;html=1;exitX=0;exitY=1;exitDx=0;exitDy=0;entryX=0.41;entryY=-0.05;entryDx=0;entryDy=0;entryPerimeter=0;" edge="1" parent="1" source="3dnz9HyW__RMo2jooEWQ-8" target="3dnz9HyW__RMo2jooEWQ-57">
          <mxGeometry relative="1" as="geometry" />
        </mxCell>
        <mxCell id="D-WzxYNva0-hMUp8_YQQ-4" style="edgeStyle=orthogonalEdgeStyle;rounded=0;orthogonalLoop=1;jettySize=auto;html=1;exitX=1;exitY=1;exitDx=0;exitDy=0;entryX=0.59;entryY=-0.125;entryDx=0;entryDy=0;entryPerimeter=0;" edge="1" parent="1" source="3dnz9HyW__RMo2jooEWQ-8" target="3dnz9HyW__RMo2jooEWQ-62">
          <mxGeometry relative="1" as="geometry" />
        </mxCell>
        <mxCell id="3dnz9HyW__RMo2jooEWQ-8" value="RESERVA EXITOSA" style="shape=process;whiteSpace=wrap;html=1;backgroundOutline=1;fillColor=#CCFFFF;" parent="1" vertex="1">
          <mxGeometry x="210" y="431" width="120" height="60" as="geometry" />
        </mxCell>
        <mxCell id="3dnz9HyW__RMo2jooEWQ-26" value="" style="ellipse;whiteSpace=wrap;html=1;align=center;aspect=fixed;fillColor=none;strokeColor=none;resizable=0;perimeter=centerPerimeter;rotatable=0;allowArrows=0;points=[];outlineConnect=1;" parent="1" vertex="1">
          <mxGeometry x="550" y="580" width="10" height="10" as="geometry" />
        </mxCell>
        <mxCell id="3dnz9HyW__RMo2jooEWQ-48" value="(1:1)" style="text;html=1;align=center;verticalAlign=middle;resizable=0;points=[];autosize=1;strokeColor=none;fillColor=none;" parent="1" vertex="1">
          <mxGeometry x="800" y="576" width="50" height="30" as="geometry" />
        </mxCell>
        <mxCell id="3dnz9HyW__RMo2jooEWQ-57" value="Fecha_ingreso" style="ellipse;whiteSpace=wrap;html=1;align=center;strokeColor=#6c8ebf;fillColor=#dae8fc;" parent="1" vertex="1">
          <mxGeometry x="170" y="530" width="100" height="40" as="geometry" />
        </mxCell>
        <mxCell id="3dnz9HyW__RMo2jooEWQ-62" value="Fecha_egreso" style="ellipse;whiteSpace=wrap;html=1;align=center;strokeColor=#6c8ebf;fillColor=#dae8fc;" parent="1" vertex="1">
          <mxGeometry x="270" y="530" width="100" height="40" as="geometry" />
        </mxCell>
        <mxCell id="3dnz9HyW__RMo2jooEWQ-67" value="(1:1)" style="text;html=1;align=center;verticalAlign=middle;resizable=0;points=[];autosize=1;strokeColor=none;fillColor=none;" parent="1" vertex="1">
          <mxGeometry x="385" y="440" width="50" height="30" as="geometry" />
        </mxCell>
      </root>
    </mxGraphModel>
  </diagram>
</mxfile>
